<mxfile host="Electron" modified="2023-11-21T13:06:33.157Z" agent="Mozilla/5.0 (Macintosh; Intel Mac OS X 10_15_7) AppleWebKit/537.36 (KHTML, like Gecko) draw.io/22.0.3 Chrome/114.0.5735.289 Electron/25.8.4 Safari/537.36" etag="WMLG635uj7lBXeSdJrJV" version="22.0.3" type="device">
  <diagram name="Seite-1" id="oSD5WKLiKDy8oyUsX7OF">
    <mxGraphModel dx="954" dy="674" grid="1" gridSize="10" guides="1" tooltips="1" connect="1" arrows="1" fold="1" page="1" pageScale="1" pageWidth="850" pageHeight="1100" math="0" shadow="0">
      <root>
        <mxCell id="0" />
        <mxCell id="1" parent="0" />
        <mxCell id="R4x1zJKw3nNZXSGfNORk-1" value="" style="ellipse;html=1;shape=startState;fillColor=#000000;strokeColor=#ff0000;" vertex="1" parent="1">
          <mxGeometry x="197.5" y="20" width="30" height="30" as="geometry" />
        </mxCell>
        <mxCell id="R4x1zJKw3nNZXSGfNORk-2" value="" style="edgeStyle=orthogonalEdgeStyle;html=1;verticalAlign=bottom;endArrow=open;endSize=8;strokeColor=#ff0000;rounded=0;entryX=0.5;entryY=0;entryDx=0;entryDy=0;" edge="1" source="R4x1zJKw3nNZXSGfNORk-1" parent="1" target="R4x1zJKw3nNZXSGfNORk-3">
          <mxGeometry relative="1" as="geometry">
            <mxPoint x="165" y="110" as="targetPoint" />
          </mxGeometry>
        </mxCell>
        <mxCell id="R4x1zJKw3nNZXSGfNORk-3" value="set network_architecture and activation function" style="rounded=1;whiteSpace=wrap;html=1;arcSize=40;fontColor=#000000;fillColor=#ffffc0;strokeColor=#ff0000;" vertex="1" parent="1">
          <mxGeometry x="135.5" y="90" width="155" height="80" as="geometry" />
        </mxCell>
        <mxCell id="R4x1zJKw3nNZXSGfNORk-4" value="" style="edgeStyle=orthogonalEdgeStyle;html=1;verticalAlign=bottom;endArrow=open;endSize=8;strokeColor=#ff0000;rounded=0;entryX=0.5;entryY=0;entryDx=0;entryDy=0;" edge="1" source="R4x1zJKw3nNZXSGfNORk-3" parent="1" target="R4x1zJKw3nNZXSGfNORk-5">
          <mxGeometry relative="1" as="geometry">
            <mxPoint x="165" y="220" as="targetPoint" />
          </mxGeometry>
        </mxCell>
        <mxCell id="R4x1zJKw3nNZXSGfNORk-5" value="create feature extractor for policy and value function" style="rounded=1;whiteSpace=wrap;html=1;arcSize=40;fontColor=#000000;fillColor=#ffffc0;strokeColor=#ff0000;" vertex="1" parent="1">
          <mxGeometry x="139.25" y="220" width="147.5" height="60" as="geometry" />
        </mxCell>
        <mxCell id="R4x1zJKw3nNZXSGfNORk-6" value="" style="edgeStyle=orthogonalEdgeStyle;html=1;verticalAlign=bottom;endArrow=open;endSize=8;strokeColor=#ff0000;rounded=0;entryX=0.5;entryY=0;entryDx=0;entryDy=0;" edge="1" source="R4x1zJKw3nNZXSGfNORk-5" parent="1" target="R4x1zJKw3nNZXSGfNORk-7">
          <mxGeometry relative="1" as="geometry">
            <mxPoint x="183" y="400" as="targetPoint" />
          </mxGeometry>
        </mxCell>
        <mxCell id="R4x1zJKw3nNZXSGfNORk-7" value="Create Distrubution object for actions" style="rounded=1;whiteSpace=wrap;html=1;arcSize=40;fontColor=#000000;fillColor=#ffffc0;strokeColor=#ff0000;" vertex="1" parent="1">
          <mxGeometry x="152.5" y="340" width="120" height="40" as="geometry" />
        </mxCell>
        <mxCell id="R4x1zJKw3nNZXSGfNORk-8" value="" style="edgeStyle=orthogonalEdgeStyle;html=1;verticalAlign=bottom;endArrow=open;endSize=8;strokeColor=#ff0000;rounded=0;entryX=0.5;entryY=0;entryDx=0;entryDy=0;" edge="1" source="R4x1zJKw3nNZXSGfNORk-7" parent="1" target="R4x1zJKw3nNZXSGfNORk-9">
          <mxGeometry relative="1" as="geometry">
            <mxPoint x="183" y="500" as="targetPoint" />
          </mxGeometry>
        </mxCell>
        <mxCell id="R4x1zJKw3nNZXSGfNORk-9" value="Create fully connected neural network for value function and policy&amp;nbsp;" style="rounded=1;whiteSpace=wrap;html=1;arcSize=40;fontColor=#000000;fillColor=#ffffc0;strokeColor=#ff0000;" vertex="1" parent="1">
          <mxGeometry x="138" y="440" width="150" height="50" as="geometry" />
        </mxCell>
        <mxCell id="R4x1zJKw3nNZXSGfNORk-10" value="" style="edgeStyle=orthogonalEdgeStyle;html=1;verticalAlign=bottom;endArrow=open;endSize=8;strokeColor=#ff0000;rounded=0;entryX=0.5;entryY=0;entryDx=0;entryDy=0;" edge="1" source="R4x1zJKw3nNZXSGfNORk-9" parent="1" target="R4x1zJKw3nNZXSGfNORk-11">
          <mxGeometry relative="1" as="geometry">
            <mxPoint x="180" y="600" as="targetPoint" />
          </mxGeometry>
        </mxCell>
        <mxCell id="R4x1zJKw3nNZXSGfNORk-11" value="add neural network layer to map latent_dim_vf to reell value" style="rounded=1;whiteSpace=wrap;html=1;arcSize=40;fontColor=#000000;fillColor=#ffffc0;strokeColor=#ff0000;" vertex="1" parent="1">
          <mxGeometry x="125.5" y="540" width="175" height="60" as="geometry" />
        </mxCell>
        <mxCell id="R4x1zJKw3nNZXSGfNORk-12" value="" style="edgeStyle=orthogonalEdgeStyle;html=1;verticalAlign=bottom;endArrow=open;endSize=8;strokeColor=#ff0000;rounded=0;entryX=0.5;entryY=0;entryDx=0;entryDy=0;" edge="1" source="R4x1zJKw3nNZXSGfNORk-11" parent="1" target="R4x1zJKw3nNZXSGfNORk-13">
          <mxGeometry relative="1" as="geometry">
            <mxPoint x="195" y="710" as="targetPoint" />
          </mxGeometry>
        </mxCell>
        <mxCell id="R4x1zJKw3nNZXSGfNORk-13" value="add neural network layer to map latent_dim_pi to action distrubution" style="rounded=1;whiteSpace=wrap;html=1;arcSize=40;fontColor=#000000;fillColor=#ffffc0;strokeColor=#ff0000;" vertex="1" parent="1">
          <mxGeometry x="135" y="660" width="155" height="60" as="geometry" />
        </mxCell>
        <mxCell id="R4x1zJKw3nNZXSGfNORk-14" value="" style="edgeStyle=orthogonalEdgeStyle;html=1;verticalAlign=bottom;endArrow=open;endSize=8;strokeColor=#ff0000;rounded=0;entryX=0.5;entryY=0;entryDx=0;entryDy=0;" edge="1" source="R4x1zJKw3nNZXSGfNORk-13" parent="1" target="R4x1zJKw3nNZXSGfNORk-15">
          <mxGeometry relative="1" as="geometry">
            <mxPoint x="195" y="820" as="targetPoint" />
          </mxGeometry>
        </mxCell>
        <mxCell id="R4x1zJKw3nNZXSGfNORk-15" value="" style="ellipse;html=1;shape=endState;fillColor=#000000;strokeColor=#ff0000;" vertex="1" parent="1">
          <mxGeometry x="198" y="770" width="30" height="30" as="geometry" />
        </mxCell>
        <mxCell id="R4x1zJKw3nNZXSGfNORk-16" value="init actor critic policy" style="shape=umlFrame;whiteSpace=wrap;html=1;pointerEvents=0;width=120;height=20;" vertex="1" parent="1">
          <mxGeometry x="30" y="10" width="290" height="810" as="geometry" />
        </mxCell>
      </root>
    </mxGraphModel>
  </diagram>
</mxfile>
